<svg xmlns="http://www.w3.org/2000/svg" viewBox="0 0 64 80" x="0px" y="0px"><title>03, add food, food, add, cloche, cook, kitchen, tools, food, restaurant,</title><g data-name="Layer 2"><path d="M49,34a9,9,0,1,0-9-9A9,9,0,0,0,49,34ZM45,24h3V21h2v3h3v2H50v3H48V26H45Z"/><path d="M55.61,33.79a11,11,0,0,1-15.4-15.41,24.94,24.94,0,0,0-4.41-1.09l.8-4.8a3,3,0,0,0-3-3.49H30.36a3,3,0,0,0-3,3.49l.8,4.8A25,25,0,0,0,7,42v2H57A28,28,0,0,0,55.61,33.79ZM22,25.84A19,19,0,0,0,13.24,39a1,1,0,0,1-1,.84h-.16a1,1,0,0,1-.83-1.14A21,21,0,0,1,21,24.14,1,1,0,1,1,22,25.84Z"/><path d="M60,46H4a1,1,0,0,0-1,1v2.5a1,1,0,0,0,.47.85l4,2.5A1,1,0,0,0,8,53H56a1,1,0,0,0,.53-.15l4-2.5A1,1,0,0,0,61,49.5V47A1,1,0,0,0,60,46Z"/></g><text x="0" y="79" fill="#000000" font-size="5px" font-weight="bold" font-family="'Helvetica Neue', Helvetica, Arial-Unicode, Arial, Sans-serif">Created by Andi Nur Abdillah</text><text x="0" y="84" fill="#000000" font-size="5px" font-weight="bold" font-family="'Helvetica Neue', Helvetica, Arial-Unicode, Arial, Sans-serif">from the Noun Project</text></svg>